<svg xmlns="http://www.w3.org/2000/svg" viewBox="0 0 120 120">
  <defs>
    <radialGradient id="bg" cx="50%" cy="30%" r="70%">
      <stop offset="0%" stop-color="#5a0080"/>
      <stop offset="100%" stop-color="#1a0025"/>
    </radialGradient>
    <linearGradient id="gold" x1="0%" y1="0%" x2="0%" y2="100%">
      <stop offset="0%" stop-color="#ffe066"/>
      <stop offset="100%" stop-color="#c8971c"/>
    </linearGradient>
    <filter id="sh"><feDropShadow dx="0" dy="2" stdDeviation="3" flood-color="#000" flood-opacity="0.4"/></filter>
  </defs>
  <circle cx="60" cy="60" r="58" fill="url(#bg)" filter="url(#sh)"/>
  <circle cx="60" cy="60" r="58" fill="none" stroke="#8b00be" stroke-width="2.5"/>
  <path d="M60 14 L66 26 L80 24 L70 34 L74 48 L60 40 L46 48 L50 34 L40 24 L54 26 Z" fill="url(#gold)"/>
  <circle cx="60" cy="48" r="20" fill="#d4a830"/>
  <ellipse cx="60" cy="50" rx="13" ry="15" fill="#c8971c"/>
  <ellipse cx="53" cy="47" rx="3.5" ry="4" fill="#1a0025"/>
  <ellipse cx="67" cy="47" rx="3.5" ry="4" fill="#1a0025"/>
  <circle cx="54" cy="46" r="1.3" fill="white"/>
  <circle cx="68" cy="46" r="1.3" fill="white"/>
  <ellipse cx="60" cy="54" rx="3.5" ry="2.5" fill="#7a3010"/>
  <path d="M54 57 Q60 62 66 57" fill="none" stroke="#4a1a00" stroke-width="1.5" stroke-linecap="round"/>
  <circle cx="60" cy="86" r="15" fill="white" stroke="#8b00be" stroke-width="1.5"/>
  <path d="M60 72 L65 80 L62 88 L58 88 L55 80 Z" fill="#38003c" opacity="0.85"/>
  <path d="M60 100 L65 92 L73 96 L74 100 L67 104 Z" fill="#38003c" opacity="0.85"/>
  <path d="M60 100 L55 92 L47 96 L46 100 L53 104 Z" fill="#38003c" opacity="0.85"/>
  <path d="M73 79 L65 80 L65 88 L71 92 L76 86 Z" fill="#38003c" opacity="0.85"/>
  <path d="M47 79 L55 80 L55 88 L49 92 L44 86 Z" fill="#38003c" opacity="0.85"/>
  <text x="60" y="114" text-anchor="middle" font-family="Arial Black,sans-serif" font-size="6.5" font-weight="900" fill="url(#gold)" letter-spacing="0.3">PREMIER LEAGUE</text>
</svg>
