<svg xmlns="http://www.w3.org/2000/svg" viewBox="0 0 120 120">
  <defs>
    <radialGradient id="bg" cx="50%" cy="30%" r="70%">
      <stop offset="0%" stop-color="#1a6b3a"/>
      <stop offset="100%" stop-color="#063018"/>
    </radialGradient>
    <linearGradient id="trophy" x1="0%" y1="0%" x2="0%" y2="100%">
      <stop offset="0%" stop-color="#ffe066"/>
      <stop offset="50%" stop-color="#c8a84b"/>
      <stop offset="100%" stop-color="#8b6914"/>
    </linearGradient>
    <filter id="sh"><feDropShadow dx="0" dy="2" stdDeviation="3" flood-color="#000" flood-opacity="0.4"/></filter>
    <filter id="glow"><feGaussianBlur stdDeviation="2" result="b"/><feMerge><feMergeNode in="b"/><feMergeNode in="SourceGraphic"/></feMerge></filter>
  </defs>
  <circle cx="60" cy="60" r="58" fill="url(#bg)" filter="url(#sh)"/>
  <circle cx="60" cy="60" r="58" fill="none" stroke="#c8a84b" stroke-width="3"/>
  <circle cx="60" cy="58" r="33" fill="none" stroke="rgba(255,255,255,0.1)" stroke-width="1"/>
  <ellipse cx="60" cy="58" rx="17" ry="33" fill="none" stroke="rgba(255,255,255,0.1)" stroke-width="1"/>
  <line x1="27" y1="58" x2="93" y2="58" stroke="rgba(255,255,255,0.1)" stroke-width="1"/>
  <line x1="30" y1="43" x2="90" y2="43" stroke="rgba(255,255,255,0.07)" stroke-width="1"/>
  <line x1="30" y1="73" x2="90" y2="73" stroke="rgba(255,255,255,0.07)" stroke-width="1"/>
  <path d="M45 26 Q45 50 60 52 Q75 50 75 26 Z" fill="url(#trophy)" filter="url(#glow)"/>
  <path d="M45 30 Q36 30 36 41 Q36 50 45 50" fill="none" stroke="url(#trophy)" stroke-width="4.5" stroke-linecap="round"/>
  <path d="M75 30 Q84 30 84 41 Q84 50 75 50" fill="none" stroke="url(#trophy)" stroke-width="4.5" stroke-linecap="round"/>
  <rect x="56.5" y="52" width="7" height="18" fill="url(#trophy)" rx="2"/>
  <rect x="47" y="70" width="26" height="6" fill="url(#trophy)" rx="3"/>
  <rect x="51" y="64" width="18" height="8" fill="url(#trophy)" rx="2"/>
  <circle cx="60" cy="37" r="10" fill="#0e5229" stroke="#ffe066" stroke-width="1.2"/>
  <ellipse cx="57" cy="34" rx="5" ry="4" fill="rgba(255,255,255,0.2)"/>
  <path d="M50 39 Q60 45 70 39" fill="none" stroke="rgba(255,255,255,0.25)" stroke-width="1"/>
  <text x="60" y="99" text-anchor="middle" font-family="Arial Black,sans-serif" font-size="14" font-weight="900" fill="#ffe066" letter-spacing="1">2026</text>
  <text x="60" y="111" text-anchor="middle" font-family="Arial,sans-serif" font-size="6" font-weight="700" fill="rgba(255,230,102,0.7)" letter-spacing="2">FIFA WORLD CUP</text>
</svg>
