<?xml version="1.0" encoding="UTF-8" standalone="no"?>
<!DOCTYPE svg PUBLIC "-//W3C//DTD SVG 1.1//EN" "http://www.w3.org/Graphics/SVG/1.1/DTD/svg11.dtd">
<svg xmlns="http://www.w3.org/2000/svg" version="1.1" viewBox="0 0 200 200" width="200.0pt" height="200.0pt">
<path d="M 0.00 0.00 L 75.08 0.00 C 73.04 2.19 70.56 4.41 69.18 7.08 C 68.16 10.17 67.58 13.40 66.56 16.49 C 64.09 25.20 63.25 33.68 58.80 41.79 C 56.98 44.91 56.88 48.06 56.96 51.59 C 60.87 57.54 67.67 57.88 74.12 58.60 C 74.30 62.54 73.35 66.12 74.03 70.00 C 74.58 73.30 74.77 76.50 73.65 79.71 C 72.52 80.60 71.26 81.19 69.92 81.67 L 73.22 82.11 C 72.56 85.12 71.69 87.86 73.10 90.82 C 74.73 94.81 78.18 97.35 82.14 98.74 C 83.80 99.30 85.34 99.82 86.61 101.11 C 88.85 100.77 90.63 99.29 92.86 99.07 C 99.39 98.75 105.85 95.80 111.26 92.28 C 115.98 88.92 114.66 83.65 116.88 78.81 L 118.45 77.54 C 119.26 83.23 120.30 91.15 124.85 95.15 C 127.82 97.95 131.40 97.86 135.21 97.96 L 134.23 94.29 C 134.89 94.42 135.53 94.45 136.20 94.42 C 136.35 95.92 136.49 97.41 136.62 98.91 C 136.34 99.43 136.06 99.95 135.79 100.47 C 135.10 100.03 134.40 99.59 133.72 99.15 C 129.94 99.57 126.00 98.48 123.43 95.58 C 119.77 92.09 118.86 86.89 117.68 82.20 C 115.97 85.42 116.52 88.53 114.29 91.21 C 111.35 94.73 106.21 96.65 102.09 98.42 C 102.08 108.54 102.08 118.66 102.09 128.78 C 115.97 128.77 129.85 128.78 143.73 128.77 C 143.76 117.88 143.66 106.97 143.78 96.08 C 141.12 93.60 137.94 92.25 134.65 90.83 L 135.71 92.78 C 135.04 92.60 134.36 92.50 133.66 92.44 C 133.50 91.13 133.04 89.88 132.29 88.70 C 136.99 90.53 141.52 91.32 145.13 95.17 C 144.68 89.26 140.60 83.59 136.55 79.47 C 133.76 76.51 130.30 75.20 127.05 72.88 C 126.37 69.61 126.47 67.80 123.05 66.31 C 123.05 64.49 122.77 62.30 123.51 60.61 C 124.56 59.87 125.98 59.65 127.16 59.18 C 134.72 56.53 139.93 51.72 146.43 47.36 C 147.41 46.58 147.97 45.36 148.13 43.71 C 146.93 44.69 145.74 45.67 144.54 46.65 C 141.91 42.83 139.18 38.36 135.59 35.41 C 132.67 33.10 129.45 33.38 126.20 31.76 C 122.83 30.13 119.42 27.77 117.34 24.59 C 114.12 19.73 109.21 15.84 104.41 12.63 C 101.22 10.57 97.98 8.24 94.06 7.95 C 90.63 7.77 86.79 7.49 83.47 8.54 C 80.55 9.62 79.97 11.99 78.10 14.16 C 76.82 15.59 74.89 15.76 73.17 15.08 L 72.56 12.18 C 74.55 12.91 76.01 13.72 77.51 11.70 C 79.41 8.31 81.87 5.64 86.00 5.46 C 90.93 5.31 96.89 4.90 101.16 7.81 C 107.99 12.32 114.65 16.77 119.31 23.65 C 122.79 28.57 127.89 29.77 133.24 31.61 C 139.19 33.49 142.43 40.26 145.65 45.12 L 147.84 43.28 C 146.63 40.31 144.84 37.56 142.90 35.02 C 138.21 28.76 129.44 27.06 123.43 21.65 C 121.23 19.07 119.73 16.20 116.91 14.15 C 108.85 8.26 100.15 2.39 90.04 0.98 C 84.82 0.24 79.80 1.83 76.89 6.41 C 77.26 4.04 78.38 2.14 76.70 0.00 L 200.00 0.00 L 200.00 200.00 L 0.00 200.00 L 0.00 0.00 Z" fill="#ffffff" />
<path d="M 75.08 0.00 L 76.70 0.00 C 78.38 2.14 77.26 4.04 76.89 6.41 C 79.80 1.83 84.82 0.24 90.04 0.98 C 100.15 2.39 108.85 8.26 116.91 14.15 C 119.73 16.20 121.23 19.07 123.43 21.65 C 129.44 27.06 138.21 28.76 142.90 35.02 C 144.84 37.56 146.63 40.31 147.84 43.28 L 145.65 45.12 C 142.43 40.26 139.19 33.49 133.24 31.61 C 127.89 29.77 122.79 28.57 119.31 23.65 C 114.65 16.77 107.99 12.32 101.16 7.81 C 96.89 4.90 90.93 5.31 86.00 5.46 C 81.87 5.64 79.41 8.31 77.51 11.70 C 76.01 13.72 74.55 12.91 72.56 12.18 L 73.17 15.08 C 74.89 15.76 76.82 15.59 78.10 14.16 C 79.97 11.99 80.55 9.62 83.47 8.54 C 86.79 7.49 90.63 7.77 94.06 7.95 C 97.98 8.24 101.22 10.57 104.41 12.63 C 109.21 15.84 114.12 19.73 117.34 24.59 C 119.42 27.77 122.83 30.13 126.20 31.76 C 129.45 33.38 132.67 33.10 135.59 35.41 C 139.18 38.36 141.91 42.83 144.54 46.65 C 145.74 45.67 146.93 44.69 148.13 43.71 C 147.97 45.36 147.41 46.58 146.43 47.36 C 139.93 51.72 134.72 56.53 127.16 59.18 C 125.98 59.65 124.56 59.87 123.51 60.61 C 122.77 62.30 123.05 64.49 123.05 66.31 C 126.47 67.80 126.37 69.61 127.05 72.88 C 130.30 75.20 133.76 76.51 136.55 79.47 C 140.60 83.59 144.68 89.26 145.13 95.17 C 141.52 91.32 136.99 90.53 132.29 88.70 C 133.04 89.88 133.50 91.13 133.66 92.44 C 134.36 92.50 135.04 92.60 135.71 92.78 L 134.65 90.83 C 137.94 92.25 141.12 93.60 143.78 96.08 C 143.66 106.97 143.76 117.88 143.73 128.77 C 129.85 128.78 115.97 128.77 102.09 128.78 C 102.08 118.66 102.08 108.54 102.09 98.42 C 106.21 96.65 111.35 94.73 114.29 91.21 C 116.52 88.53 115.97 85.42 117.68 82.20 C 118.86 86.89 119.77 92.09 123.43 95.58 C 126.00 98.48 129.94 99.57 133.72 99.15 C 134.40 99.59 135.10 100.03 135.79 100.47 C 136.06 99.95 136.34 99.43 136.62 98.91 C 136.49 97.41 136.35 95.92 136.20 94.42 C 135.53 94.45 134.89 94.42 134.23 94.29 L 135.21 97.96 C 131.40 97.86 127.82 97.95 124.85 95.15 C 120.30 91.15 119.26 83.23 118.45 77.54 L 116.88 78.81 C 114.66 83.65 115.98 88.92 111.26 92.28 C 105.85 95.80 99.39 98.75 92.86 99.07 C 90.63 99.29 88.85 100.77 86.61 101.11 C 85.34 99.82 83.80 99.30 82.14 98.74 C 78.18 97.35 74.73 94.81 73.10 90.82 C 71.69 87.86 72.56 85.12 73.22 82.11 L 69.92 81.67 C 71.26 81.19 72.52 80.60 73.65 79.71 C 74.77 76.50 74.58 73.30 74.03 70.00 C 73.35 66.12 74.30 62.54 74.12 58.60 C 67.67 57.88 60.87 57.54 56.96 51.59 C 56.88 48.06 56.98 44.91 58.80 41.79 C 63.25 33.68 64.09 25.20 66.56 16.49 C 67.58 13.40 68.16 10.17 69.18 7.08 C 70.56 4.41 73.04 2.19 75.08 0.00 Z" fill="#000000" />
<path d="M 71.97 9.58 C 72.61 15.40 70.56 20.38 69.80 26.03 C 68.07 31.88 66.46 38.20 63.17 43.31 C 62.05 46.58 61.20 49.95 60.79 53.39 C 59.05 52.15 58.49 51.21 58.96 49.02 C 59.86 43.04 64.44 39.16 65.46 33.31 C 66.70 28.56 68.11 23.88 69.05 19.05 C 69.83 15.88 70.25 12.34 71.97 9.58 Z" fill="#ffffff" />
<path d="M 84.37 12.79 C 85.75 14.75 87.23 16.53 88.84 18.32 C 87.18 17.38 85.34 16.68 83.80 15.56 C 83.99 14.63 84.18 13.71 84.37 12.79 Z" fill="#ffffff" />
<path d="M 100.47 13.51 C 101.53 14.28 101.86 15.23 102.34 16.40 C 100.38 17.24 98.68 18.43 96.90 19.60 C 98.52 17.65 99.61 15.90 100.47 13.51 Z" fill="#ffffff" />
<path d="M 92.04 16.68 C 94.67 16.09 97.76 18.88 96.10 21.53 L 94.09 20.37 C 93.24 22.22 92.33 23.97 91.85 25.97 L 93.44 26.00 C 93.52 24.08 96.11 22.04 97.29 24.40 C 95.54 24.89 94.48 26.03 93.04 27.01 C 91.83 26.58 90.70 25.88 89.66 24.92 C 89.48 25.67 89.31 26.42 89.14 27.18 C 87.08 28.92 85.62 30.72 82.78 31.19 C 83.19 31.93 83.61 32.66 84.03 33.39 C 83.36 32.66 82.69 31.93 82.01 31.22 C 84.43 30.09 86.34 28.45 88.51 26.89 C 88.90 25.31 89.89 23.23 89.03 21.73 C 87.86 19.72 89.84 16.75 92.04 16.68 Z" fill="#ffffff" />
<path d="M 95.92 25.57 C 98.23 27.03 100.46 28.75 102.58 30.47 C 103.41 31.50 101.69 33.07 100.77 33.37 C 101.39 32.63 101.79 31.84 101.95 31.01 C 99.67 29.31 97.42 28.17 95.92 25.57 Z" fill="#ffffff" />
<path d="M 89.64 27.46 C 91.67 28.73 93.10 28.42 95.33 28.14 C 94.70 29.56 94.05 30.25 92.47 30.34 C 90.97 29.85 90.46 28.68 89.64 27.46 Z" fill="#ffffff" />
<path d="M 88.44 42.27 C 95.69 42.01 105.16 40.77 110.97 46.05 C 113.65 48.01 116.59 49.71 118.94 52.08 C 120.61 53.59 120.88 56.46 121.45 58.52 C 118.46 55.50 115.34 52.61 112.20 49.76 C 109.87 47.55 107.09 46.97 104.12 46.07 C 101.21 45.24 98.43 44.33 95.41 44.02 C 92.89 43.69 90.37 43.59 87.83 43.51 L 88.44 42.27 Z" fill="#ffe808" />
<path d="M 87.15 42.98 L 87.18 43.43 C 86.47 44.31 85.36 44.47 83.84 43.93 C 84.69 43.10 85.79 42.78 87.15 42.98 Z" fill="#ffe808" />
<path d="M 81.60 44.58 C 81.58 44.38 81.58 44.38 81.60 44.58 Z" fill="#ffe808" />
<path d="M 95.41 44.02 C 98.43 44.33 101.21 45.24 104.12 46.07 C 100.37 45.76 96.72 44.77 92.99 44.47 C 88.93 45.36 84.52 45.56 80.66 47.10 L 82.02 45.89 C 82.50 45.50 82.99 45.11 83.48 44.74 C 87.50 44.46 91.36 43.70 95.41 44.02 Z" fill="#ffcfbe" />
<path d="M 79.08 44.61 C 80.06 45.03 81.04 45.46 82.02 45.89 L 80.66 47.10 L 80.37 47.28 C 79.32 46.99 78.61 47.33 78.24 48.30 L 75.74 47.67 C 76.78 46.56 77.88 45.56 79.08 44.61 Z" fill="#ffe808" />
<path d="M 91.25 46.14 L 91.95 46.07 C 93.48 46.00 95.02 46.00 96.56 46.06 C 93.05 47.56 89.33 48.23 85.91 50.02 C 82.41 51.01 79.12 51.67 76.10 53.86 C 76.20 52.64 76.33 51.43 76.46 50.22 C 81.17 47.73 86.11 47.10 91.25 46.14 Z" fill="#ffcfbe" />
<path d="M 80.37 47.28 C 79.93 48.35 79.22 48.69 78.24 48.30 C 78.61 47.33 79.32 46.99 80.37 47.28 Z" fill="#000000" />
<path d="M 101.96 47.02 C 104.49 47.64 107.20 48.30 109.50 49.56 C 112.75 51.84 115.37 54.93 118.53 57.36 C 117.74 58.06 116.93 58.76 116.12 59.44 C 115.62 62.94 115.13 66.19 113.25 69.27 C 111.97 71.31 109.94 72.64 108.53 74.49 C 107.54 76.31 106.83 78.27 105.95 80.16 C 103.40 79.15 102.40 78.31 100.86 76.06 C 99.35 73.74 97.10 73.49 94.63 72.79 C 95.71 71.79 96.59 70.69 97.38 69.44 C 96.30 69.92 95.27 70.46 94.25 71.06 C 91.26 69.07 90.08 70.24 87.36 71.78 C 86.06 71.05 84.79 70.26 83.48 69.53 C 84.39 63.70 85.38 58.07 84.98 52.13 C 87.26 50.74 89.53 49.46 92.14 48.81 C 95.58 47.87 98.25 46.26 101.96 47.02 Z" fill="#ffcfbe" />
<path d="M 100.22 52.10 C 104.05 51.44 108.09 53.63 109.62 57.22 C 105.93 57.10 102.48 55.90 98.80 56.01 C 101.37 57.68 104.11 57.59 107.00 58.39 C 103.06 60.36 99.24 57.83 95.25 59.89 C 95.50 58.93 95.29 58.00 94.61 57.08 C 95.91 57.03 97.07 56.68 98.08 56.04 C 95.75 55.92 94.22 56.34 92.19 57.43 C 92.24 58.55 92.29 59.68 92.33 60.80 C 91.89 60.26 91.47 59.71 91.06 59.15 C 91.16 57.12 90.96 55.55 90.22 53.67 C 93.55 53.17 96.87 52.46 100.22 52.10 Z" fill="#000000" />
<path d="M 119.17 61.76 C 121.02 61.36 121.85 63.58 121.94 65.04 C 121.76 68.19 119.23 70.41 116.98 72.30 C 117.19 70.52 116.33 68.31 118.04 67.15 C 118.53 67.34 119.03 67.53 119.52 67.72 C 120.00 66.60 120.49 65.48 121.03 64.37 C 120.49 63.92 119.96 63.47 119.43 63.01 C 118.57 63.90 117.71 64.78 116.84 65.65 C 117.02 64.12 117.18 61.89 119.17 61.76 Z" fill="#ffcfbe" />
<path d="M 83.37 61.36 C 82.76 64.23 82.43 67.12 82.04 70.01 C 82.77 70.67 83.51 71.32 84.26 71.95 C 81.52 72.98 78.87 74.10 76.47 75.80 C 76.43 72.30 75.38 68.96 75.27 65.45 C 77.29 64.80 79.45 64.36 81.34 63.38 C 82.02 62.71 82.70 62.04 83.37 61.36 Z" fill="#ffcfbe" />
<path d="M 123.40 66.95 C 124.35 68.17 125.74 69.42 126.25 70.92 C 126.32 72.43 125.83 73.89 124.80 75.30 C 127.09 74.96 128.02 76.41 129.40 77.83 C 127.73 77.20 125.55 76.77 124.26 75.49 C 123.32 74.37 124.53 73.11 124.85 72.00 L 124.29 70.68 C 123.87 69.86 123.42 69.06 122.92 68.28 L 123.40 66.95 Z" fill="#ffffff" />
<path d="M 122.92 68.28 C 123.42 69.06 123.87 69.86 124.29 70.68 C 123.79 72.27 122.93 73.63 121.99 74.99 C 120.93 74.86 119.86 74.73 118.79 74.62 C 121.32 72.95 120.66 70.23 122.92 68.28 Z" fill="#ffe808" />
<path d="M 115.90 69.48 C 115.95 70.64 115.98 71.80 115.98 72.97 C 118.16 76.40 121.01 74.76 124.01 76.79 C 121.95 76.97 119.88 77.12 117.82 77.24 C 115.55 75.35 113.25 72.05 115.90 69.48 Z" fill="#ffffff" />
<path d="M 49.03 74.79 C 57.11 74.78 65.19 74.77 73.26 74.79 C 72.84 76.08 72.43 77.36 72.05 78.66 C 65.69 78.62 59.32 78.67 52.96 78.63 C 52.94 105.75 52.98 132.88 52.94 160.00 C 52.85 165.16 53.21 170.58 55.75 175.19 C 58.71 180.80 65.88 183.27 71.72 184.39 C 80.38 186.19 91.63 186.50 98.74 192.31 C 100.22 194.03 101.57 191.73 102.99 191.05 C 113.35 184.28 129.19 186.88 139.31 180.29 C 145.36 176.62 146.77 169.56 147.07 163.00 C 147.01 134.88 147.07 106.75 147.04 78.64 C 143.93 78.66 140.83 78.64 137.73 78.63 C 136.22 77.26 134.62 76.01 133.03 74.74 C 138.97 74.83 144.92 74.76 150.86 74.79 C 150.80 104.18 150.86 133.61 150.83 163.00 C 150.67 170.93 148.46 178.89 141.53 183.52 C 132.82 189.37 120.52 188.79 110.73 191.77 C 106.07 193.06 102.54 195.60 99.86 199.62 C 97.10 194.64 92.25 192.37 86.91 191.13 C 77.50 188.81 66.06 188.95 57.88 183.16 C 51.58 178.55 49.57 171.49 49.06 164.03 C 49.02 134.36 49.10 104.44 49.03 74.79 Z" fill="#000000" />
<path d="M 84.16 78.16 C 86.69 77.87 89.35 77.69 91.88 77.98 C 93.43 78.85 94.97 79.70 96.58 80.45 C 98.29 82.12 99.92 82.15 102.25 82.45 C 101.56 81.58 100.83 80.74 100.08 79.93 C 101.69 81.08 102.94 81.59 104.94 81.76 C 100.75 82.60 97.22 85.06 93.01 85.91 C 90.97 86.45 90.25 85.32 88.76 84.23 C 89.62 83.48 90.48 82.73 91.34 81.98 C 88.11 82.70 85.80 82.76 82.57 81.95 C 83.49 82.75 84.40 83.55 85.31 84.36 C 83.81 85.51 82.86 86.05 80.91 86.20 C 80.22 85.11 79.51 84.03 78.73 82.99 C 79.20 82.16 79.71 81.37 80.28 80.62 C 81.75 80.03 82.84 78.99 84.16 78.16 Z" fill="#ffcfbe" />
<path d="M 119.24 77.25 C 120.32 78.97 120.83 80.85 121.27 82.82 L 122.71 82.40 C 123.38 87.23 125.74 89.66 129.63 92.26 L 128.59 87.68 C 131.16 90.52 133.20 92.85 133.72 96.76 C 131.63 95.23 129.69 93.64 127.84 91.82 C 128.99 93.18 130.10 94.57 131.15 96.00 C 128.97 95.73 127.50 93.93 125.15 93.86 C 121.39 90.95 121.11 84.60 119.69 80.26 C 119.54 79.26 119.38 78.25 119.24 77.25 Z" fill="#ffe808" />
<path d="M 130.10 78.65 C 132.03 79.64 133.34 81.18 134.69 82.82 C 132.80 82.87 130.90 82.92 129.01 83.01 C 131.59 81.43 130.74 81.50 130.10 78.65 Z" fill="#ffffff" />
<path d="M 143.73 81.67 C 143.73 83.30 143.77 84.93 143.79 86.57 C 142.70 84.93 141.69 83.25 140.59 81.62 C 141.63 81.63 142.68 81.65 143.73 81.67 Z" fill="#000000" />
<path d="M 55.97 82.63 C 61.17 82.63 66.37 82.61 71.57 82.65 L 71.11 84.19 C 66.62 84.31 62.12 84.19 57.62 84.22 C 57.60 98.79 57.60 113.37 57.62 127.95 C 70.69 127.92 83.76 127.95 96.83 127.93 C 96.82 118.58 96.83 109.22 96.82 99.87 L 98.57 99.85 C 98.55 109.83 98.56 119.82 98.56 129.80 C 84.37 129.79 70.17 129.81 55.97 129.79 C 55.96 114.07 55.97 98.35 55.97 82.63 Z" fill="#000000" />
<path d="M 57.62 84.22 C 62.12 84.19 66.62 84.31 71.11 84.19 C 70.35 88.76 72.01 92.67 74.86 96.14 C 77.97 99.28 81.68 99.45 85.33 101.71 C 87.47 103.11 88.94 101.72 90.91 100.89 C 92.81 99.84 94.72 99.97 96.82 99.87 C 96.83 109.22 96.82 118.58 96.83 127.93 C 83.76 127.95 70.69 127.92 57.62 127.95 C 57.60 113.37 57.60 98.79 57.62 84.22 Z" fill="#ffe808" />
<path d="M 55.97 133.06 C 70.17 133.04 84.37 133.06 98.56 133.05 C 98.59 151.54 98.51 170.03 98.60 188.52 C 87.53 181.61 74.88 184.46 64.19 177.86 C 58.70 174.67 56.23 168.10 55.98 162.03 C 55.95 152.38 55.98 142.71 55.97 133.06 Z" fill="#000000" />
<path d="M 101.39 133.05 C 115.58 133.05 129.78 133.05 143.97 133.05 C 143.96 142.36 143.99 151.68 143.96 161.00 C 143.97 166.21 142.33 171.84 138.66 175.67 C 135.99 178.18 132.38 179.83 128.92 180.94 C 119.27 183.71 110.25 183.08 101.34 188.54 C 101.45 170.05 101.36 151.55 101.39 133.05 Z" fill="#000000" />
<path d="M 103.12 134.73 C 116.20 134.71 129.27 134.73 142.35 134.72 C 142.34 142.82 142.36 150.91 142.34 159.01 C 142.27 163.67 141.83 168.22 139.28 172.26 C 136.78 176.50 131.48 178.59 126.95 179.84 C 118.83 181.73 110.82 181.99 103.13 185.67 C 103.13 168.69 103.15 151.71 103.12 134.73 Z" fill="#ffe808" />
</svg>